<svg height="512" viewBox="0 0 512 512" width="512" xmlns="http://www.w3.org/2000/svg"><g id="filled_outline" data-name="filled outline"><rect fill="#ea9d2d" height="320" rx="10" width="464" x="24" y="72"/><path d="m400 104h-288a56 56 0 0 1 -56 56v144a56 56 0 0 1 56 56h288a56 56 0 0 1 56-56v-144a56 56 0 0 1 -56-56z" fill="#eaeae8"/><path d="m416 352v88l-32-32-32 32v-88z" fill="#0296e5"/><path d="m416 352v15.15l-16.19-.97-15.81 17.82-15.81-17.82-16.19.97v-15.15z" fill="#0296e5"/><path d="m416 352v15.15l-16.19-.97-15.81 17.82-15.81-17.82-16.19.97v-15.15z" fill="#0a6fa2"/><g fill="#cbcbcb"><path d="m320 160h-128a8 8 0 0 1 0-16h128a8 8 0 0 1 0 16z"/><path d="m152 208h-40a8 8 0 0 1 0-16h40a8 8 0 0 1 0 16z"/><path d="m352 208h-168a8 8 0 0 1 0-16h168a8 8 0 0 1 0 16z"/><path d="m208 240h-80a8 8 0 0 1 0-16h80a8 8 0 0 1 0 16z"/><path d="m320 240h-72a8 8 0 0 1 0-16h72a8 8 0 0 1 0 16z"/><path d="m240 320h-104a8 8 0 0 1 0-16h104a8 8 0 0 1 0 16z"/></g><path d="m240 296h-8a8 8 0 0 1 0-16h8a8 8 0 0 1 0 16z" fill="#ee5e5b"/><path d="m207.994 296a7.973 7.973 0 0 1 -3.572-.847 27.917 27.917 0 0 0 -24.844 0 8 8 0 0 1 -11.578-7.153v-8a8 8 0 0 0 -16 0v8a8 8 0 0 1 -16 0v-8a24 24 0 0 1 47.814-2.988 43.979 43.979 0 0 1 27.764 3.833 8 8 0 0 1 -3.584 15.155z" fill="#ee5e5b"/><path d="m384 264 15.814 17.821 23.784-1.419-1.419 23.784 17.821 15.814-17.821 15.814 1.419 23.784-23.784-1.419-15.814 17.821-15.814-17.821-23.784 1.419 1.419-23.784-17.821-15.814 17.821-15.814-1.419-23.784 23.784 1.419z" fill="#fbb540"/><circle cx="384" cy="320" fill="#ea9d2d" r="16"/><path d="m478 64h-444a18.021 18.021 0 0 0 -18 18v300a18.021 18.021 0 0 0 18 18h310v40a8 8 0 0 0 13.657 5.657l26.343-26.344 26.343 26.344a8 8 0 0 0 13.657-5.657v-40h54a18.021 18.021 0 0 0 18-18v-300a18.021 18.021 0 0 0 -18-18zm-70 356.687-18.343-18.344a8 8 0 0 0 -11.314 0l-18.343 18.344v-54.006l4.782-.285 13.235 14.914a8 8 0 0 0 11.966 0l13.235-14.91 4.782.285zm8.869-90.857a8 8 0 0 0 -2.676 6.461l.882 14.784-14.784-.882a8.041 8.041 0 0 0 -6.46 2.676l-9.831 11.078-9.831-11.078a8 8 0 0 0 -5.982-2.69c-.16 0-.319.005-.478.014l-14.784.882.882-14.784a8 8 0 0 0 -2.676-6.461l-11.078-9.83 11.078-9.83a8 8 0 0 0 2.676-6.461l-.882-14.784 14.784.882a8.014 8.014 0 0 0 6.46-2.676l9.831-11.078 9.831 11.078a8.016 8.016 0 0 0 6.46 2.676l14.784-.882-.882 14.784a8 8 0 0 0 2.676 6.461l11.078 9.83zm-80.452-48.952 1.187 19.9-14.914 13.238a8 8 0 0 0 0 11.968l14.91 13.234-.758 12.782h-217.342a64.14 64.14 0 0 0 -55.5-55.5v-129a64.14 64.14 0 0 0 55.5-55.5h273a64.14 64.14 0 0 0 55.5 55.5v129a64.186 64.186 0 0 0 -17.183 4.653l-.421-.374 1.187-19.9a8 8 0 0 0 -8.462-8.462l-19.9 1.188-13.238-14.915a8 8 0 0 0 -11.966 0l-13.235 14.91-19.9-1.188a8 8 0 0 0 -8.462 8.462zm143.583 101.122a2 2 0 0 1 -2 2h-54v-16.414a7.995 7.995 0 0 0 7.583-8.464l-1.187-19.9 14.914-13.234a8 8 0 0 0 0-11.968l-.716-.635a48.18 48.18 0 0 1 11.406-1.385 8 8 0 0 0 8-8v-144a8 8 0 0 0 -8-8 48.054 48.054 0 0 1 -48-48 8 8 0 0 0 -8-8h-288a8 8 0 0 0 -8 8 48.054 48.054 0 0 1 -48 48 8 8 0 0 0 -8 8v144a8 8 0 0 0 8 8 48.054 48.054 0 0 1 48 48 8 8 0 0 0 8 8h232v16h-310a2 2 0 0 1 -2-2v-300a2 2 0 0 1 2-2h444a2 2 0 0 1 2 2z"/><path d="m384 296a24 24 0 1 0 24 24 24.027 24.027 0 0 0 -24-24zm0 32a8 8 0 1 1 8-8 8.009 8.009 0 0 1 -8 8z"/><path d="m192 160h128a8 8 0 0 0 0-16h-128a8 8 0 0 0 0 16z"/><path d="m160 200a8 8 0 0 0 -8-8h-40a8 8 0 0 0 0 16h40a8 8 0 0 0 8-8z"/><path d="m360 200a8 8 0 0 0 -8-8h-168a8 8 0 0 0 0 16h168a8 8 0 0 0 8-8z"/><path d="m208 240a8 8 0 0 0 0-16h-80a8 8 0 0 0 0 16z"/><path d="m320 224h-72a8 8 0 0 0 0 16h72a8 8 0 0 0 0-16z"/><path d="m240 304h-104a8 8 0 0 0 0 16h104a8 8 0 0 0 0-16z"/><path d="m240 280h-8a8 8 0 0 0 0 16h8a8 8 0 0 0 0-16z"/><path d="m171.794 294.805a8 8 0 0 0 7.784.35 27.917 27.917 0 0 1 24.844 0 8 8 0 0 0 7.156-14.31 43.979 43.979 0 0 0 -27.764-3.833 24 24 0 0 0 -47.814 2.988v8a8 8 0 0 0 16 0v-8a8 8 0 0 1 16 0v8a8 8 0 0 0 3.794 6.805z"/></g></svg>