<?xml version="1.0" encoding="iso-8859-1"?>
<!-- Generator: Adobe Illustrator 19.0.0, SVG Export Plug-In . SVG Version: 6.00 Build 0)  -->
<svg version="1.1" id="Capa_1" xmlns="http://www.w3.org/2000/svg" xmlns:xlink="http://www.w3.org/1999/xlink" x="0px" y="0px"
	 viewBox="0 0 512 512" style="enable-background:new 0 0 512 512;" xml:space="preserve">
<path style="fill:#FEA832;" d="M138.079,426.883l-21.215-21.215l-21.225-21.225c-5.941-5.941-15.274-5.941-21.215,0l-10.563,10.653
	L4.367,455.099c-3.611,3.611-5.091,8.912-4.031,14.213c0.64,2.761,2.121,5.091,4.031,7.002c1.7,1.7,3.611,2.761,5.731,3.611
	l24.436,8.062l38.619,12.753c5.511,1.7,11.453,0.43,15.484-3.601l38.789-38.479l10.653-10.563
	C144.02,442.156,144.02,432.824,138.079,426.883z"/>
<path style="fill:#FE9923;" d="M138.079,448.098l-10.653,10.563L88.637,497.14c-4.031,4.031-9.972,5.301-15.484,3.601
	l-38.619-12.753l61.105-61.105h0.01l21.215-21.215l21.215,21.215C144.02,432.824,144.02,442.156,138.079,448.098z"/>
<g>
	<path style="fill:#5A5A5A;" d="M498.786,66.165L477.571,44.95l-21.215-21.215c-17.614-17.614-46.041-17.614-63.655,0
		l-11.873,11.873l-9.342,9.342c-5.941,5.941-5.951,15.274,0,21.215l42.43,42.44h0.01l42.43,42.43c5.941,5.951,15.274,5.941,21.215,0
		l9.352-9.352l11.863-11.863C516.401,112.206,516.401,83.78,498.786,66.165z"/>
	<path style="fill:#5A5A5A;" d="M266.237,446.824c-4.03,4.88-10.184,6.789-16.339,4.88l-6.577-2.334
		c-29.705-9.761-61.957-2.123-84.025,19.945c-5.94,5.94-15.277,5.941-21.218,0l-84.874-84.874c-5.941-5.941-5.94-15.278,0-21.218
		c22.068-22.068,29.706-54.32,19.945-84.025l-2.334-6.577c-1.908-6.154,0-12.308,4.669-16.128l32.464,12.944l154.256,154.256
		L266.237,446.824z"/>
</g>
<g>
	<path style="fill:#444444;" d="M266.237,446.824c-4.03,4.88-10.184,6.789-16.339,4.88l-6.577-2.334
		c-29.705-9.761-61.957-2.123-84.025,19.945c-5.94,5.94-15.277,5.941-21.218,0L95.642,426.88l84.874-84.874l81.69,81.69
		L266.237,446.824z"/>
	<path style="fill:#444444;" d="M456.354,151.041l-42.436-42.436l63.655-63.655l21.218,21.218c17.611,17.611,17.611,46.043,0,63.655
		l-21.218,21.218C471.632,156.981,462.296,156.982,456.354,151.041z"/>
</g>
<path style="fill:#FEA832;" d="M430.892,252.889l-46.891-4.455L270.905,135.339l-1.273-43.71l60.26-50.924
	C348.353,25.639,374.45,26.702,391,43.251l88.269,88.269c16.55,16.55,17.611,42.647,2.759,60.897L430.892,252.889z"/>
<path style="fill:#FE9923;" d="M430.892,252.889l-46.891-4.455l-54.956-54.956L435.135,87.385l44.135,44.135
	c16.55,16.55,17.611,42.647,2.759,60.897L430.892,252.889z"/>
<polygon style="fill:#FFD400;" points="266.238,447.248 75.273,256.283 269.633,91.629 430.892,252.889 "/>
<polygon style="fill:#FDBF00;" points="266.238,447.248 170.756,351.765 350.262,172.259 430.892,252.889 "/>
<path style="fill:#5A5A5A;" d="M392.701,129.821c-17.614-17.614-46.041-17.614-63.655,0l-84.871,84.871
	c-5.941,5.941-5.941,15.284,0,21.225l21.215,21.215l21.215,21.215c5.941,5.941,15.284,5.941,21.225,0l53.043-53.043l31.828-31.828
	C410.315,175.862,410.315,147.435,392.701,129.821z"/>
<path style="fill:#444444;" d="M286.607,278.351l-21.218-21.218l127.31-127.31c17.611,17.611,17.611,46.043,0,63.655l-84.874,84.874
	C301.885,284.291,292.548,284.292,286.607,278.351z"/>
<g>
</g>
<g>
</g>
<g>
</g>
<g>
</g>
<g>
</g>
<g>
</g>
<g>
</g>
<g>
</g>
<g>
</g>
<g>
</g>
<g>
</g>
<g>
</g>
<g>
</g>
<g>
</g>
<g>
</g>
</svg>
